<?xml version="1.0" encoding="UTF-8" standalone="no"?>
<!-- Created with Inkscape (http://www.inkscape.org/) -->

<svg
   xmlns:dc="http://purl.org/dc/elements/1.1/"
   xmlns:cc="http://creativecommons.org/ns#"
   xmlns:rdf="http://www.w3.org/1999/02/22-rdf-syntax-ns#"
   xmlns:svg="http://www.w3.org/2000/svg"
   xmlns="http://www.w3.org/2000/svg"
   xmlns:sodipodi="http://sodipodi.sourceforge.net/DTD/sodipodi-0.dtd"
   xmlns:inkscape="http://www.inkscape.org/namespaces/inkscape"
   width="300"
   height="160"
   viewBox="0 0 79.374998 42.333335"
   version="1.1"
   id="svg8"
   inkscape:version="0.92.0 r15299"
   sodipodi:docname="Teacup.svg">
  <defs
     id="defs2" />
  <sodipodi:namedview
     id="base"
     pagecolor="#ffffff"
     bordercolor="#666666"
     borderopacity="1.0"
     inkscape:pageopacity="0.0"
     inkscape:pageshadow="2"
     inkscape:zoom="0.64"
     inkscape:cx="23.281283"
     inkscape:cy="197.95911"
     inkscape:document-units="mm"
     inkscape:current-layer="layer1"
     showgrid="false"
     units="px"
     inkscape:window-width="741"
     inkscape:window-height="419"
     inkscape:window-x="450"
     inkscape:window-y="89"
     inkscape:window-maximized="0" />
  <metadata
     id="metadata5">
    <rdf:RDF>
      <cc:Work
         rdf:about="">
        <dc:format>image/svg+xml</dc:format>
        <dc:type
           rdf:resource="http://purl.org/dc/dcmitype/StillImage" />
        <dc:title></dc:title>
      </cc:Work>
    </rdf:RDF>
  </metadata>
  <g
     inkscape:label="Layer 1"
     inkscape:groupmode="layer"
     id="layer1"
     transform="translate(0,-254.66665)">
    <path
       style="fill:#000000;stroke-width:0.3525714"
       d="m 22.659323,296.73955 c -3.007171,-0.51592 -6.860268,-1.90525 -11.189148,-4.03452 -4.5377713,-2.23201 -8.0923578,-3.61928 -9.2736685,-3.61928 -0.4415835,0 -1.1666592,-0.24978 -1.61128103,-0.55507 -0.66034234,-0.45341 -0.72837944,-0.6496 -0.37147916,-1.07116 0.49504982,-0.58475 0.36085413,-0.59179 14.79710469,0.77631 4.932614,0.46746 9.316877,0.84992 9.742806,0.84992 0.593384,0 0.286608,-0.35383 -1.312312,-1.51357 -6.351007,-4.60662 -10.739157,-12.68201 -11.373402,-20.93015 -0.314759,-4.09333 -0.670668,-5.20865 -1.874697,-5.87478 -2.0052322,-1.10938 -1.5792511,-3.91738 0.688623,-4.53929 1.481118,-0.40616 52.152725,-0.34777 53.250449,0.0614 0.81678,0.30443 1.346821,0.20346 3.139024,-0.59793 6.37883,-2.85231 11.680915,0.46349 11.666743,7.2961 -0.0071,3.26961 -1.023802,5.9569 -3.118949,8.2413 -2.033189,2.21684 -4.198439,3.5631 -8.472957,5.26807 -3.918693,1.56305 -5.20814,2.36382 -5.927164,3.68086 -0.29974,0.54903 -0.917991,1.0061 -1.520745,1.12428 -0.723372,0.14182 -1.353787,0.71287 -2.190524,1.98422 -0.646169,0.98182 -2.172482,2.71168 -3.39181,3.84415 l -2.216953,2.05905 2.788741,-0.1967 c 1.533807,-0.10817 7.473231,-0.62414 13.198714,-1.14657 8.590018,-0.78382 10.507509,-0.87053 10.96785,-0.49601 0.910425,0.7407 -0.117415,1.38761 -3.08472,1.94145 -2.557748,0.47739 -4.416602,1.27867 -11.595114,4.99815 -1.886831,0.97765 -4.224157,1.88237 -5.519497,2.13648 -2.761764,0.54179 -33.322085,0.80633 -36.195634,0.31334 z m 45.315152,-24.70468 c 2.279282,-1.20594 5.624055,-4.50221 6.624802,-6.52874 1.47633,-2.98962 0.419773,-6.4128 -2.150098,-6.96611 -1.084023,-0.23341 -6.190052,1.51547 -7.45067,2.55194 -0.554662,0.45605 -0.805511,1.30804 -1.098977,3.73266 -0.209147,1.72795 -0.667422,4.43695 -1.018395,6.02 -0.350968,1.58304 -0.570024,2.94503 -0.486787,3.02662 0.273144,0.26777 3.791834,-0.89021 5.580125,-1.83637 z"
       id="path4496"
       inkscape:connector-curvature="0" />
  </g>
</svg>
