<?xml version="1.0" encoding="UTF-8" standalone="no"?>
<!-- Created with Inkscape (http://www.inkscape.org/) -->

<svg
   xmlns:dc="http://purl.org/dc/elements/1.1/"
   xmlns:cc="http://creativecommons.org/ns#"
   xmlns:rdf="http://www.w3.org/1999/02/22-rdf-syntax-ns#"
   xmlns:svg="http://www.w3.org/2000/svg"
   xmlns="http://www.w3.org/2000/svg"
   xmlns:sodipodi="http://sodipodi.sourceforge.net/DTD/sodipodi-0.dtd"
   xmlns:inkscape="http://www.inkscape.org/namespaces/inkscape"
   width="52.916668mm"
   height="37.041668mm"
   viewBox="0 0 52.916667 37.041667"
   version="1.1"
   id="svg5070"
   inkscape:version="0.92.0 r15299"
   sodipodi:docname="Teapot.svg">
  <defs
     id="defs5064" />
  <sodipodi:namedview
     id="base"
     pagecolor="#ffffff"
     bordercolor="#666666"
     borderopacity="1.0"
     inkscape:pageopacity="0.0"
     inkscape:pageshadow="2"
     inkscape:zoom="0.98994949"
     inkscape:cx="336.54114"
     inkscape:cy="-167.77733"
     inkscape:document-units="mm"
     inkscape:current-layer="layer1"
     showgrid="false"
     fit-margin-top="0"
     fit-margin-left="0"
     fit-margin-right="0"
     fit-margin-bottom="0"
     inkscape:window-width="1920"
     inkscape:window-height="1009"
     inkscape:window-x="-8"
     inkscape:window-y="-8"
     inkscape:window-maximized="1" />
  <metadata
     id="metadata5067">
    <rdf:RDF>
      <cc:Work
         rdf:about="">
        <dc:format>image/svg+xml</dc:format>
        <dc:type
           rdf:resource="http://purl.org/dc/dcmitype/StillImage" />
        <dc:title></dc:title>
      </cc:Work>
    </rdf:RDF>
  </metadata>
  <g
     inkscape:label="Layer 1"
     inkscape:groupmode="layer"
     id="layer1"
     transform="translate(-0.4629162,0.38630217)">
    <path
       style="fill:#000000;stroke-width:0.3876678"
       d="m 19.775736,36.390546 c -3.218128,-0.224114 -3.891744,-0.781506 -2.363542,-1.95575 0.812336,-0.624192 0.788465,-0.66188 -1.36082,-2.148252 C 14.848168,31.45444 12.488768,30.160176 10.808288,29.410393 5.1606209,26.890578 1.4818667,22.926311 0.67449643,18.490115 -0.21728059,13.590036 1.7347778,10.525008 6.0611137,10.03231 c 1.3234947,-0.1507222 2.0815377,0.01012 3.5921327,0.761649 1.0530486,0.523988 1.9146296,1.106665 1.9146296,1.294852 0,0.729521 0.764328,0.294427 1.023605,-0.582676 0.325347,-1.10058 4.126781,-4.4333816 5.056769,-4.4333816 0.414039,0 0.651115,-0.3251584 0.651115,-0.8930415 0,-0.4987646 0.243681,-0.8930314 0.551956,-0.8930314 0.303578,0 0.965418,-0.4748272 1.470766,-1.0551751 0.586149,-0.6731505 1.452583,-1.1402012 2.393079,-1.2900118 1.383547,-0.2203771 1.474249,-0.3198626 1.474249,-1.6171245 0,-1.19802935 0.148889,-1.414022 1.116913,-1.62030403 1.569802,-0.33453486 2.455192,0.26690494 2.481122,1.68541273 0.01978,1.0871624 0.170431,1.2299256 1.599865,1.5169503 0.966901,0.1941514 1.925828,0.7163571 2.476311,1.3485488 0.494108,0.5674375 1.146759,1.0317036 1.450326,1.0317036 0.303588,0 0.551966,0.3823691 0.551966,0.8496931 0,0.6066445 0.359726,0.9762246 1.257602,1.2919961 2.539031,0.8929504 5.301468,4.2825693 6.928119,8.5010413 0.898648,2.330494 1.081699,2.231778 3.822975,-2.061888 l 2.057482,-3.222625 h 2.573298 c 1.415308,0 2.697202,0.105205 2.848656,0.233803 0.151455,0.128588 -0.386665,0.731395 -1.195808,1.339547 -1.342564,1.009093 -1.546879,1.433616 -2.337261,4.856509 -1.021524,4.423904 -2.650132,8.630893 -3.992624,10.313674 -1.361572,1.706676 -4.482477,3.479728 -7.041702,4.000537 -1.202339,0.244678 -2.794817,0.857002 -3.538828,1.36072 l -1.352753,0.915834 0.838751,0.758054 c 1.528273,1.381224 0.748379,1.813068 -3.728957,2.064815 -4.366865,0.24554 -6.574823,0.226301 -11.229132,-0.09782 z M 10.655361,25.589184 c -0.396968,-0.591435 -0.560095,-2.380849 -0.560342,-6.146701 l -3.5e-4,-5.312369 -1.4721676,-0.862026 C 6.7170815,12.152371 4.6016801,12.249466 3.5132941,13.50261 2.4362817,14.742631 2.0836032,17.427871 2.737356,19.410414 c 0.6305315,1.912118 3.5215618,4.812938 6.2759218,6.297181 2.0899342,1.126208 2.4595492,1.099556 1.6420832,-0.118411 z"
       id="path5626-2"
       inkscape:connector-curvature="0"
       sodipodi:nodetypes="cscssccscsssccsccccsscsscsccscscccccccccccssc" />
  </g>
</svg>
